Coordinates
version=1
nRows=49
nColumns=12
inDegrees=yes

Units are S.I. units (second, meters, Newtons, ...)
Angles are in degrees

endheader
time	SC_y	SC_z	SC_x	AC_y	AC_z	AC_x	GH_y	GH_z	GH_yy	EL_x	PS_y
       0.0              -37.54          25.49          15.05          55.53         -19.62          12.19          50.17         -8.315         -60.21          62.83          118.8
   0.04312              -37.54          25.49          15.05          55.53         -19.62          12.19          50.16         -8.304          -60.2          62.83          118.8
   0.08623              -37.54          25.49          15.06          55.52         -19.62          12.19          50.16         -8.293         -60.19          62.84          118.8
    0.1294              -37.54          25.49          15.06          55.52         -19.62          12.18          50.16         -8.281         -60.18          62.84          118.8
    0.1725              -37.54          25.48          15.06          55.51         -19.62          12.18          50.16         -8.268         -60.17          62.85          118.8
    0.2156              -37.53          25.48          15.06          55.51         -19.62          12.18          50.15         -8.255         -60.15          62.85          118.8
    0.2587              -37.53          25.48          15.07           55.5         -19.62          12.17          50.15          -8.24         -60.14          62.86          118.7
    0.3018              -37.53          25.48          15.07           55.5         -19.61          12.17          50.14         -8.225         -60.13          62.86          118.7
    0.3449              -37.53          25.47          15.07          55.49         -19.61          12.17          50.14         -8.208         -60.11          62.87          118.7
    0.3881              -37.53          25.47          15.08          55.49         -19.61          12.16          50.14          -8.19          -60.1          62.88          118.7
    0.4312              -37.52          25.47          15.08          55.48         -19.61          12.16          50.13         -8.171         -60.08          62.88          118.7
    0.4743              -37.52          25.46          15.09          55.48         -19.61          12.16          50.13         -8.151         -60.06          62.89          118.7
    0.5174              -37.52          25.46          15.09          55.47          -19.6          12.15          50.12         -8.129         -60.04           62.9          118.7
    0.5605              -37.51          25.46           15.1          55.46          -19.6          12.15          50.12         -8.105         -60.02          62.91          118.7
    0.6036              -37.51          25.45           15.1          55.45          -19.6          12.14          50.11         -8.079          -60.0          62.92          118.7
    0.6468               -37.5          25.45          15.11          55.44         -19.59          12.14           50.1         -8.051         -59.98          62.93          118.7
    0.6899               -37.5          25.44          15.12          55.43         -19.59          12.13          50.09         -8.021         -59.95          62.94          118.7
     0.733               -37.5          25.44          15.12          55.42         -19.59          12.12          50.09         -7.987         -59.92          62.95          118.7
    0.7761              -37.49          25.43          15.13          55.41         -19.58          12.12          50.08         -7.951         -59.89          62.96          118.7
    0.8192              -37.48          25.43          15.14           55.4         -19.58          12.11          50.07         -7.911         -59.86          62.98          118.7
    0.8623              -37.48          25.42          15.15          55.38         -19.57           12.1          50.06         -7.868         -59.82           63.0          118.6
    0.9055              -37.47          25.41          15.16          55.37         -19.57          12.09          50.05          -7.82         -59.78          63.01          118.6
    0.9486              -37.46           25.4          15.17          55.35         -19.56          12.08          50.03         -7.767         -59.73          63.03          118.6
    0.9917              -37.45          25.39          15.19          55.33         -19.56          12.07          50.02         -7.708         -59.68          63.05          118.6
     1.035              -37.44          25.38           15.2          55.31         -19.55          12.06           50.0         -7.643         -59.62          63.08          118.6
     1.078              -37.43          25.37          15.22          55.29         -19.54          12.04          49.98          -7.57         -59.56          63.11          118.6
     1.121              -37.42          25.36          15.23          55.26         -19.53          12.02          49.96         -7.489         -59.49          63.14          118.5
     1.164              -37.41          25.34          15.25          55.23         -19.52          12.01          49.94         -7.397         -59.41          63.17          118.5
     1.207              -37.39          25.32          15.28           55.2         -19.51          11.99          49.92         -7.293         -59.32          63.21          118.5
      1.25              -37.37          25.31           15.3          55.16          -19.5          11.96          49.89         -7.176         -59.22          63.25          118.4
     1.294              -37.35          25.28          15.33          55.12         -19.48          11.94          49.85         -7.041          -59.1           63.3          118.4
     1.337              -37.33          25.26          15.37          55.07         -19.46           11.9          49.82         -6.887         -58.97          63.36          118.4
      1.38              -37.31          25.23          15.41          55.01         -19.44          11.87          49.77         -6.709         -58.81          63.43          118.3
     1.423              -37.28           25.2          15.45          54.94         -19.42          11.83          49.72         -6.502         -58.63           63.5          118.3
     1.466              -37.24          25.16          15.51          54.86         -19.39          11.78          49.66          -6.26         -58.42          63.59          118.2
     1.509               -37.2          25.11          15.57          54.77         -19.36          11.72          49.59         -5.975         -58.18           63.7          118.1
     1.552              -37.15          25.05          15.64          54.66         -19.32          11.65          49.51         -5.636         -57.88          63.83          118.0
     1.595              -37.09          24.99          15.73          54.53         -19.27          11.57          49.41          -5.23         -57.53          63.98          117.9
     1.638              -37.01          24.91          15.84          54.37         -19.22          11.48          49.29         -4.738          -57.1          64.16          117.7
     1.682              -36.92          24.81          15.98          54.17         -19.15          11.36          49.14         -4.138         -56.58          64.38          117.6
     1.725              -36.81          24.69          16.14          53.93         -19.07          11.21          48.96         -3.397         -55.94          64.66          117.4
     1.768              -36.68          24.54          16.35          53.63         -18.96          11.02          48.73         -2.473         -55.14           65.0          117.1
     1.811               -36.5          24.35           16.6          53.25         -18.83          10.79          48.45         -1.309         -54.12          65.44          116.8
     1.854              -36.29          24.11          16.93          52.77         -18.66          10.49          48.09         0.1714         -52.84          65.99          116.4
     1.897               -36.0           23.8          17.35          52.16         -18.45          10.12          47.62          2.066          -51.2          66.69          115.8
      1.94              -35.64           23.4          17.89          51.37         -18.17          9.631          47.02          4.497         -49.09           67.6          115.1
     1.983              -35.18           22.9          18.58          50.36         -17.82           9.01          46.26          7.602         -46.39          68.75          114.2
     2.026               -34.6          22.26          19.45          49.09         -17.38          8.231           45.3          11.51          -43.0          70.21          113.1
      2.07               -33.9          21.48           20.5          47.55         -16.84           7.28          44.14          16.26         -38.87          71.98          111.8
